<svg width="45" height="45" viewBox="0 0 45 44" fill="none" xmlns="http://www.w3.org/2000/svg">
<rect x="0.803442" y="0.65" width="42.7" height="42.7" rx="21.35" fill="#1B1B1B"/>
<rect x="0.803442" y="0.65" width="42.7" height="42.7" rx="21.35" stroke="#262626" stroke-width="1.3"/>
<path d="M8.40344 16.4415C8.40344 14.9873 9.58227 13.8085 11.0364 13.8085C12.4906 13.8085 13.6694 14.9873 13.6694 16.4415C13.6694 17.8956 12.4906 19.0745 11.0364 19.0745C9.58227 19.0745 8.40344 17.8956 8.40344 16.4415Z" fill="#F35034"/>
<path d="M8.40344 22C8.40344 20.5458 9.58227 19.367 11.0364 19.367C12.4906 19.367 13.6694 20.5458 13.6694 22C13.6694 23.4542 12.4906 24.633 11.0364 24.633C9.58227 24.633 8.40344 23.4542 8.40344 22Z" fill="#F35034"/>
<path d="M8.40344 27.5585C8.40344 26.1044 9.58227 24.9255 11.0364 24.9255C12.4906 24.9255 13.6694 26.1044 13.6694 27.5585C13.6694 29.0127 12.4906 30.1915 11.0364 30.1915C9.58227 30.1915 8.40344 29.0127 8.40344 27.5585Z" fill="#F35034"/>
<path d="M13.962 10.883C13.962 9.42882 15.1408 8.25 16.5949 8.25C18.0491 8.25 19.2279 9.42882 19.2279 10.883C19.2279 12.3371 18.0491 13.516 16.5949 13.516C15.1408 13.516 13.962 12.3371 13.962 10.883Z" fill="#F35034"/>
<path d="M13.962 16.4415C13.962 14.9873 15.1408 13.8085 16.5949 13.8085C18.0491 13.8085 19.2279 14.9873 19.2279 16.4415C19.2279 17.8956 18.0491 19.0745 16.5949 19.0745C15.1408 19.0745 13.962 17.8956 13.962 16.4415Z" fill="#F35034"/>
<path d="M13.962 22C13.962 20.5458 15.1408 19.367 16.5949 19.367C18.0491 19.367 19.2279 20.5458 19.2279 22C19.2279 23.4542 18.0491 24.633 16.5949 24.633C15.1408 24.633 13.962 23.4542 13.962 22Z" fill="#F35034"/>
<path d="M13.962 27.5585C13.962 26.1044 15.1408 24.9255 16.5949 24.9255C18.0491 24.9255 19.2279 26.1044 19.2279 27.5585C19.2279 29.0127 18.0491 30.1915 16.5949 30.1915C15.1408 30.1915 13.962 29.0127 13.962 27.5585Z" fill="#F35034"/>
<path d="M13.962 33.117C13.962 31.6629 15.1408 30.484 16.5949 30.484C18.0491 30.484 19.2279 31.6629 19.2279 33.117C19.2279 34.5712 18.0491 35.75 16.5949 35.75C15.1408 35.75 13.962 34.5712 13.962 33.117Z" fill="#F35034"/>
<path d="M19.5205 10.883C19.5205 9.42882 20.6993 8.25 22.1534 8.25C23.6076 8.25 24.7864 9.42882 24.7864 10.883C24.7864 12.3371 23.6076 13.516 22.1534 13.516C20.6993 13.516 19.5205 12.3371 19.5205 10.883Z" fill="#F35034"/>
<path d="M19.5205 16.4415C19.5205 14.9873 20.6993 13.8085 22.1534 13.8085C23.6076 13.8085 24.7864 14.9873 24.7864 16.4415C24.7864 17.8956 23.6076 19.0745 22.1534 19.0745C20.6993 19.0745 19.5205 17.8956 19.5205 16.4415Z" fill="#F35034"/>
<path d="M19.5205 22C19.5205 20.5458 20.6993 19.367 22.1534 19.367C23.6076 19.367 24.7864 20.5458 24.7864 22C24.7864 23.4542 23.6076 24.633 22.1534 24.633C20.6993 24.633 19.5205 23.4542 19.5205 22Z" fill="#F35034"/>
<path d="M19.5205 27.5585C19.5205 26.1044 20.6993 24.9255 22.1534 24.9255C23.6076 24.9255 24.7864 26.1044 24.7864 27.5585C24.7864 29.0127 23.6076 30.1915 22.1534 30.1915C20.6993 30.1915 19.5205 29.0127 19.5205 27.5585Z" fill="#F35034"/>
<path d="M19.5205 33.117C19.5205 31.6629 20.6993 30.484 22.1534 30.484C23.6076 30.484 24.7864 31.6629 24.7864 33.117C24.7864 34.5712 23.6076 35.75 22.1534 35.75C20.6993 35.75 19.5205 34.5712 19.5205 33.117Z" fill="#F35034"/>
<path d="M25.079 10.883C25.079 9.42882 26.2578 8.25 27.712 8.25C29.1661 8.25 30.3449 9.42882 30.3449 10.883C30.3449 12.3371 29.1661 13.516 27.712 13.516C26.2578 13.516 25.079 12.3371 25.079 10.883Z" fill="#F35034"/>
<path d="M25.079 16.4415C25.079 14.9873 26.2578 13.8085 27.712 13.8085C29.1661 13.8085 30.3449 14.9873 30.3449 16.4415C30.3449 17.8956 29.1661 19.0745 27.712 19.0745C26.2578 19.0745 25.079 17.8956 25.079 16.4415Z" fill="#F35034"/>
<path d="M25.079 22C25.079 20.5458 26.2578 19.367 27.712 19.367C29.1661 19.367 30.3449 20.5458 30.3449 22C30.3449 23.4542 29.1661 24.633 27.712 24.633C26.2578 24.633 25.079 23.4542 25.079 22Z" fill="#F35034"/>
<path d="M25.079 27.5585C25.079 26.1044 26.2578 24.9255 27.712 24.9255C29.1661 24.9255 30.3449 26.1044 30.3449 27.5585C30.3449 29.0127 29.1661 30.1915 27.712 30.1915C26.2578 30.1915 25.079 29.0127 25.079 27.5585Z" fill="#F35034"/>
<path d="M25.079 33.117C25.079 31.6629 26.2578 30.484 27.712 30.484C29.1661 30.484 30.3449 31.6629 30.3449 33.117C30.3449 34.5712 29.1661 35.75 27.712 35.75C26.2578 35.75 25.079 34.5712 25.079 33.117Z" fill="#F35034"/>
<path d="M30.6375 16.4415C30.6375 14.9873 31.8163 13.8085 33.2705 13.8085C34.7246 13.8085 35.9034 14.9873 35.9034 16.4415C35.9034 17.8956 34.7246 19.0745 33.2705 19.0745C31.8163 19.0745 30.6375 17.8956 30.6375 16.4415Z" fill="#F35034"/>
<path d="M30.6375 22C30.6375 20.5458 31.8163 19.367 33.2705 19.367C34.7246 19.367 35.9034 20.5458 35.9034 22C35.9034 23.4542 34.7246 24.633 33.2705 24.633C31.8163 24.633 30.6375 23.4542 30.6375 22Z" fill="#F35034"/>
<path d="M30.6375 27.5585C30.6375 26.1044 31.8163 24.9255 33.2705 24.9255C34.7246 24.9255 35.9034 26.1044 35.9034 27.5585C35.9034 29.0127 34.7246 30.1915 33.2705 30.1915C31.8163 30.1915 30.6375 29.0127 30.6375 27.5585Z" fill="#F35034"/>
</svg>
