<svg width="9" height="9" viewBox="0 0 9 9" fill="none" xmlns="http://www.w3.org/2000/svg">
<path d="M8.03944 5.14286H5.29252V7.88978C5.29252 8.03548 5.23464 8.17522 5.13161 8.27825C5.02858 8.38128 4.88885 8.43916 4.74314 8.43916C4.59743 8.43916 4.4577 8.38128 4.35467 8.27825C4.25164 8.17522 4.19376 8.03548 4.19376 7.88978V5.14286H1.44684C1.30114 5.14286 1.1614 5.08498 1.05837 4.98195C0.955342 4.87892 0.897461 4.73919 0.897461 4.59348C0.897461 4.44778 0.955342 4.30804 1.05837 4.20501C1.1614 4.10198 1.30114 4.0441 1.44684 4.0441H4.19376V1.29719C4.19376 1.15148 4.25164 1.01174 4.35467 0.908713C4.4577 0.805684 4.59743 0.747803 4.74314 0.747803C4.88885 0.747803 5.02858 0.805684 5.13161 0.908713C5.23464 1.01174 5.29252 1.15148 5.29252 1.29719V4.0441H8.03944C8.18514 4.0441 8.32488 4.10198 8.42791 4.20501C8.53094 4.30804 8.58882 4.44778 8.58882 4.59348C8.58882 4.73919 8.53094 4.87892 8.42791 4.98195C8.32488 5.08498 8.18514 5.14286 8.03944 5.14286Z" fill="white"/>
</svg>
